<?xml version="1.0" encoding="utf-8"?>
<svg version="1.1" id="logo__icon" xmlns="http://www.w3.org/2000/svg" xmlns:xlink="http://www.w3.org/1999/xlink" x="0px" y="0px"
	 viewBox="-476.014 331.838 25.252 30.011" style="enable-background:new -476.014 331.838 25.252 30.011;" xml:space="preserve">
<style type="text/css">
	.st0{fill:#FFFFFF;}
</style>
<g>
	<path class="st0" d="M-453.415,342.355l-7.581-4.375c-0.043-0.022-0.097-0.033-0.141-0.033c-0.043,0-0.097,0.011-0.141,0.033
		l-7.559,4.364h-0.011c-0.011,0-0.022,0.011-0.022,0.011h-0.011l-0.043,0.011c-0.087,0.054-0.162,0.141-0.162,0.238v8.783
		c0,0.097,0.076,0.184,0.162,0.238l7.635,4.386c0.043,0.022,0.097,0.033,0.141,0.033c0.043,0,0.13-0.011,0.195-0.033l7.646-4.386
		c0.087-0.043,0.217-0.141,0.217-0.238v-8.783c0-0.097-0.13-0.184-0.217-0.238L-453.415,342.355z M-461.147,338.522l2.48,1.43
		l-7.018,4.05l-2.48-1.43L-461.147,338.522z M-461.277,355.286l-7.061-4.072h0.011v-8.166l2.231,1.462v2.837l0.39-0.162l0.671,0.682
		h0.574l0.217,0.325v-2.751l2.967,1.668V355.286z M-461.147,346.622l-3.032-1.744l7.028-4.05l3.021,1.744L-461.147,346.622z
		 M-453.848,351.214l-7.061,4.072v-8.176l7.061-4.072V351.214z"/>
	<path class="st0" d="M-470.71,356.553c-5.231-5.231-5.231-13.743,0-18.974c4.224-4.224,10.635-5.112,15.779-2.372l-1.289,2.123
		c-0.022,0.043-0.022,0.087,0,0.119c0.022,0.022,0.054,0.043,0.087,0.043c0,0,0.011,0,0.022,0.011l5.166-0.682
		c0.033-0.011,0.054-0.022,0.076-0.054s0.022-0.065,0.011-0.097l-1.874-4.765c-0.022-0.033-0.054-0.065-0.097-0.065
		c-0.032-0.011-0.076,0.022-0.097,0.054l-1.289,2.123c-5.686-3.076-12.801-2.101-17.468,2.577c-5.772,5.772-5.772,15.151,0,20.923
		c2.881,2.892,6.671,4.332,10.461,4.332c3.78,0,7.57-1.451,10.461-4.321l-0.975-0.975
		C-456.967,361.784-465.479,361.784-470.71,356.553z"/>
</g>
</svg>
